<?xml version="1.0" encoding="UTF-8" standalone="no"?>
<!DOCTYPE svg PUBLIC "-//W3C//DTD SVG 1.1//EN" "http://www.w3.org/Graphics/SVG/1.1/DTD/svg11.dtd">
<svg width="100%" height="100%" viewBox="0 0 26 26" version="1.1" xmlns="http://www.w3.org/2000/svg" xmlns:xlink="http://www.w3.org/1999/xlink" xml:space="preserve" xmlns:serif="http://www.serif.com/" style="fill-rule:evenodd;clip-rule:evenodd;stroke-linejoin:round;stroke-miterlimit:2;fill:#CCCCCC;">
    <g transform="matrix(1,0,0,1,-9.929,-10.4)">
        <g id="All">
            <g id="c0c08cb62956aa05284daf6222b4b509">
                <g id="Path_1083" transform="matrix(1,0,0,1,-0.437,0)">
                    <path d="M10.745,18.817L22.992,25.8C23.218,25.93 23.497,25.928 23.721,25.795L23.737,25.787L36.028,18.8C36.255,18.665 36.395,18.419 36.395,18.154C36.395,17.889 36.255,17.643 36.028,17.508L23.736,10.509L23.72,10.5C23.607,10.434 23.479,10.4 23.348,10.4C23.222,10.4 23.099,10.435 22.992,10.5L10.745,17.479C10.517,17.624 10.378,17.877 10.378,18.148C10.378,18.419 10.517,18.672 10.745,18.817ZM23.353,12.16L33.871,18.146L23.353,24.133L12.853,18.147L23.353,12.16Z" style="fill-rule:nonzero;"/>
                </g>
                <g id="Path_1084" transform="matrix(1,0,0,1,0,-637.803)">
                    <path d="M34.775,665.737L22.916,672.495L11.148,665.737C11.025,665.666 10.885,665.629 10.742,665.629C10.296,665.629 9.928,665.996 9.928,666.443C9.928,666.734 10.085,667.004 10.337,667.149L22.509,674.138C22.759,674.281 23.067,674.281 23.317,674.138L35.58,667.149C35.834,667.004 35.991,666.734 35.991,666.442C35.991,665.995 35.624,665.627 35.177,665.627C35.036,665.627 34.897,665.664 34.774,665.734L34.775,665.737Z" style="fill-rule:nonzero;"/>
                </g>
                <g id="Path_1085" transform="matrix(1,0,0,1,-0.068,-447.113)">
                    <path d="M10.408,471.249L22.58,478.238C22.83,478.381 23.138,478.381 23.388,478.238L35.651,471.249C35.91,471.106 36.071,470.833 36.071,470.537C36.071,470.091 35.704,469.724 35.258,469.724C35.113,469.724 34.97,469.763 34.845,469.837L22.984,476.592L11.216,469.834C11.087,469.753 10.938,469.711 10.785,469.711C10.339,469.711 9.971,470.078 9.971,470.525C9.971,470.827 10.14,471.106 10.408,471.246L10.408,471.249Z" style="fill-rule:nonzero;"/>
                </g>
            </g>
        </g>
    </g>
</svg>
